<?xml version="1.0" standalone="no"?>
<!DOCTYPE svg PUBLIC "-//W3C//DTD SVG 20010904//EN"
 "http://www.w3.org/TR/2001/REC-SVG-20010904/DTD/svg10.dtd">
<svg version="1.0" xmlns="http://www.w3.org/2000/svg"
 width="260.000000pt" height="260.000000pt" viewBox="0 0 260.000000 260.000000"
 preserveAspectRatio="xMidYMid meet">
<metadata>
Created by potrace 1.14, written by Peter Selinger 2001-2017
</metadata>
<g transform="translate(0.000000,260.000000) scale(0.100000,-0.100000)"
fill="#000000" stroke="none">
<path d="M1300 1950 l0 -490 -165 0 -165 0 0 165 0 165 -325 0 -325 0 0 -165
0 -165 -160 0 -160 0 0 -485 0 -485 160 0 160 0 0 -165 0 -165 325 0 325 0 0
165 0 165 -325 0 -325 0 0 160 0 160 490 0 490 0 0 -325 0 -325 485 0 485 0 0
165 0 165 165 0 165 0 0 325 0 325 -165 0 -165 0 0 160 0 160 165 0 165 0 0
325 0 325 -165 0 -165 0 0 165 0 165 -485 0 -485 0 0 -490z m970 -165 l0 -325
-325 0 -325 0 0 325 0 325 325 0 325 0 0 -325z m-1300 -485 l0 -160 -325 0
-325 0 0 160 0 160 325 0 325 0 0 -160z m1300 -485 l0 -325 -325 0 -325 0 0
325 0 325 325 0 325 0 0 -325z"/>
</g>
</svg>
